<?xml version="1.0" encoding="utf-8"?>
<!-- Generator: Adobe Illustrator 20.0.0, SVG Export Plug-In . SVG Version: 6.00 Build 0)  -->
<svg version="1.1" id="Camada_1" xmlns="http://www.w3.org/2000/svg" xmlns:xlink="http://www.w3.org/1999/xlink" x="0px" y="0px"
	 viewBox="0 0 111.9 106.5" style="enable-background:new 0 0 111.9 106.5;" xml:space="preserve">
<style type="text/css">
	.st0{fill:#FFFFFF;}
</style>
<g id="Bg">
</g>
<g>
	<path class="st0" d="M74,77.2c-10.3,0-19.7-4-26.7-10.5H8v-1h38.2c-4-4-7.2-8.9-9.2-14.3H8v-1h28.7c-1.3-4-2.1-8.2-2.1-12.6
		c0-0.6,0-1.2,0-1.8H8v-1h26.7c0.6-8.5,3.9-16.3,9.1-22.5H1.6v92.3h78v-28C77.8,77.1,75.9,77.2,74,77.2z M68.9,97.4H8v-1h60.9V97.4z
		 M68.9,82H8v-1h60.9V82z"/>
	<path class="st0" d="M74,0C53.1,0,36.1,17,36.1,37.9s17,37.9,37.9,37.9c20.9,0,37.9-17,37.9-37.9S94.9,0,74,0z M99.9,45.4
		l-18.7,0.1v14.8H66.9V45.5H48.2V29.6h18.7V15.3h14.3v14.3h18.7V45.4z"/>
</g>
</svg>
