<svg id="Camada_1" data-name="Camada 1" xmlns="http://www.w3.org/2000/svg" viewBox="0 0 23.99 24.52"><defs><style>.cls-1{fill:#59595b;}</style></defs><title>telas</title><path class="cls-1" d="M17.89,12.34A6.09,6.09,0,1,0,24,18.43,6.1,6.1,0,0,0,17.89,12.34Zm4,6.89a.9.9,0,0,1-.65.25H18.94v2.15a1,1,0,0,1-.3.75,1.14,1.14,0,0,1-1.52,0,1,1,0,0,1-.3-.75V19.48H14.56a.9.9,0,0,1-.92-.92.83.83,0,0,1,.26-.64.92.92,0,0,1,.65-.25h2.25V15.23a1,1,0,0,1,.3-.75,1.07,1.07,0,0,1,.78-.29,1,1,0,0,1,1.05,1v2.44h2.29a.9.9,0,0,1,.65.25.93.93,0,0,1,0,1.29Z"/><path class="cls-1" d="M16.81,19.48H14.56a.9.9,0,0,1-.92-.92.83.83,0,0,1,.26-.64.92.92,0,0,1,.65-.25h2.25V15.23a1,1,0,0,1,.3-.75,1.07,1.07,0,0,1,.78-.29,1,1,0,0,1,.75.29,1,1,0,0,1,.16.24V12.41a6.09,6.09,0,0,0-6.26,8.94h4.26Z"/><path class="cls-1" d="M10.8,18.43a7,7,0,0,1,8-7V0H0V21.35H11.44A7,7,0,0,1,10.8,18.43Z"/></svg>